<?xml version="1.0" encoding="UTF-8"?>
<svg version="1.1" xmlns="http://www.w3.org/2000/svg" width="1600" height="1600">
<path d="M0 0 C13.80000614 10.16527225 26.63743595 22.33471541 35.69921875 36.98828125 C36.64667969 38.50228516 36.64667969 38.50228516 37.61328125 40.046875 C43.33671101 49.60433975 47.55996251 59.66215798 51.69921875 69.98828125 C57.08199759 68.45630462 62.36750098 66.76339422 67.61987305 64.83349609 C87.08907178 57.71868347 106.69088506 54.56688186 127.38671875 54.67578125 C128.12967194 54.6779364 128.87262512 54.68009155 129.63809204 54.68231201 C153.80004393 54.79434829 175.80639885 60.33683318 198.859375 67.2265625 C201.79155745 68.01304885 204.69856704 68.53796056 207.69921875 68.98828125 C208.18390625 67.77914062 208.66859375 66.57 209.16796875 65.32421875 C222.34644496 32.92630069 243.28583716 6.43062845 275.48828125 -8.67578125 C284.69402357 -12.50590762 293.75776602 -14.86233517 303.51171875 -11.82421875 C307.92313151 -9.31576836 311.06890931 -6.90264707 312.69921875 -2.01171875 C312.87163583 0.42190597 312.96587643 2.86148721 313.01171875 5.30078125 C313.04910156 6.59628906 313.08648438 7.89179688 313.125 9.2265625 C312.62723263 13.62426875 311.52372257 15.61725528 308.69921875 18.98828125 C302.89981363 23.53454858 296.51373783 26.32316715 289.2109375 27.33203125 C276.8708166 29.14726827 268.39517768 35.30683978 259.69921875 43.98828125 C258.99925781 44.67664063 258.29929687 45.365 257.578125 46.07421875 C249.09988986 54.96562324 239.88543343 69.02553065 239.19921875 81.61328125 C239.91160218 93.31672336 250.57606846 102.98999421 257.69921875 111.62890625 C293.21480425 154.92365519 311.02861496 209.21192223 319.92675781 263.86791992 C320.10303711 264.87830322 320.27931641 265.88868652 320.4609375 266.9296875 C320.67689575 268.25528687 320.67689575 268.25528687 320.8972168 269.60766602 C322.4571966 274.23821793 326.03385156 276.39868462 330.19921875 278.58203125 C331.07594238 279.04859131 331.95266602 279.51515137 332.85595703 279.99584961 C333.7942334 280.48835205 334.73250977 280.98085449 335.69921875 281.48828125 C370.48677123 300.12549331 403.11948772 322.31708366 433.12988281 347.95288086 C435.3450947 349.84217013 437.57097284 351.71669464 439.81225586 353.57495117 C448.9385704 361.19476903 457.40762707 369.38783589 465.78735352 377.81567383 C468.01941797 380.05851765 470.26206089 382.29038617 472.50585938 384.52148438 C480.03285386 392.0415566 487.14220322 399.59938858 493.69921875 407.98828125 C494.62148017 409.07905464 495.55118861 410.1636307 496.4921875 411.23828125 C555.58828945 479.10721399 593.97801722 569.43401744 588.42578125 660.21484375 C585.80796589 693.39185341 571.17874598 725.83017357 549.69921875 750.98828125 C549.003125 751.80683594 548.30703125 752.62539062 547.58984375 753.46875 C520.88631166 784.00736382 482.76292481 800.09789131 442.69921875 802.98828125 C417.42288246 804.0014106 393.55935682 800.56063534 369.0234375 794.6328125 C367.71632813 794.32706299 367.71632813 794.32706299 366.3828125 794.01513672 C364.76192206 793.63242648 363.14547978 793.23015942 361.53515625 792.80517578 C359.13971699 792.1879483 359.13971699 792.1879483 355.69921875 791.98828125 C352.1520191 794.76345324 350.63852508 797.83666944 348.9296875 801.94140625 C348.43726563 803.10986084 347.94484375 804.27831543 347.4375 805.48217773 C347.18436035 806.09551971 346.9312207 806.70886169 346.67041016 807.34078979 C345.8771635 809.26141663 345.0712225 811.17626149 344.26171875 813.09008789 C342.07486557 818.26784611 339.91614753 823.45683773 337.78125 828.65625 C327.91187801 852.39512545 313.28528698 874.37376984 296.0859375 893.42041016 C295.06790718 894.57142965 294.07374841 895.74367746 293.09375 896.92724609 C292.29517578 897.89138428 292.29517578 897.89138428 291.48046875 898.875 C290.7544043 899.76578247 290.7544043 899.76578247 290.01367188 900.67456055 C288.69921875 901.98828125 288.69921875 901.98828125 286.69921875 901.98828125 C286.47363281 902.54644531 286.24804688 903.10460938 286.015625 903.6796875 C268.56093189 934.29014338 215.53954989 955.91608392 183.78759766 964.80322266 C125.31586293 980.60966296 63.18944704 973.80286472 10.35473633 943.81713867 C1.01206332 938.40236393 -7.9473198 932.85378238 -16.30078125 925.98828125 C-17.16703125 925.31023438 -18.03328125 924.6321875 -18.92578125 923.93359375 C-35.12411711 911.07851907 -49.3368525 896.38422008 -61.828125 879.92773438 C-62.82284169 878.61771624 -63.82299321 877.31180974 -64.828125 876.00976562 C-81.48861798 854.34281528 -97.47152364 827.96479006 -103.30078125 800.98828125 C-104.191604 801.13450928 -105.08242676 801.2807373 -106.00024414 801.43139648 C-109.38219406 801.98305587 -112.76506002 802.5283055 -116.14868164 803.06958008 C-117.59862454 803.30279215 -119.04818805 803.53837833 -120.49731445 803.77661133 C-168.61090386 811.67585735 -221.09961909 807.00578813 -262.12109375 778.4140625 C-265.30203782 776.07902678 -268.30822457 773.56039608 -271.30078125 770.98828125 C-272.21601563 770.24578125 -273.13125 769.50328125 -274.07421875 768.73828125 C-286.31532235 758.35614181 -295.4935988 744.72842047 -303.28320312 730.8046875 C-304.28761124 729.01179009 -305.31684163 727.23484154 -306.34765625 725.45703125 C-320.85015999 699.92829244 -325.52957167 673.91280246 -325.55078125 644.92578125 C-325.55145599 644.0912442 -325.55213074 643.25670715 -325.55282593 642.3968811 C-325.44705589 559.48404606 -287.78306433 478.7251632 -236.30078125 414.98828125 C-235.75292969 414.30056641 -235.20507812 413.61285156 -234.640625 412.90429688 C-223.51871975 398.9575797 -211.43241904 386.07010389 -198.86328125 373.42578125 C-198.22535645 372.78310303 -197.58743164 372.1404248 -196.93017578 371.47827148 C-193.11490958 367.67641483 -189.17861162 364.06923573 -185.10229492 360.54907227 C-182.9180827 358.65671981 -180.7986224 356.69901453 -178.67578125 354.73828125 C-173.55813409 350.11589027 -168.17675549 345.8939795 -162.73046875 341.671875 C-159.75922846 339.3635507 -156.86885936 336.97169264 -153.98828125 334.55078125 C-146.73879579 328.59433267 -139.02786051 323.29937399 -131.30078125 317.98828125 C-130.61693359 317.51551758 -129.93308594 317.04275391 -129.22851562 316.55566406 C-84.58957649 285.80487042 -84.58957649 285.80487042 -65.1696167 278.14801025 C-63.14461245 277.14227978 -63.14461245 277.14227978 -62.49395752 275.05145264 C-62.34932068 274.25813538 -62.20468384 273.46481812 -62.05566406 272.64746094 C-61.79406242 271.28976089 -61.79406242 271.28976089 -61.5271759 269.90463257 C-61.35449692 268.91645538 -61.18181793 267.9282782 -61.00390625 266.91015625 C-60.71219795 265.37097031 -60.71219795 265.37097031 -60.41459656 263.8006897 C-59.99728022 261.59569399 -59.58710809 259.38933668 -59.18331909 257.18182373 C-58.12663029 251.42919908 -57.0050598 245.68935737 -55.8828125 239.94921875 C-55.66230728 238.81783478 -55.44180206 237.68645081 -55.21461487 236.52078247 C-48.06659452 200.18662982 -35.93947469 164.02515839 -15.30078125 132.98828125 C-14.84203613 132.29798828 -14.38329102 131.60769531 -13.91064453 130.89648438 C-7.65316129 121.57937447 -1.04351428 113.12219765 6.69921875 104.98828125 C8.49169925 102.94543404 10.2613619 100.88547832 12.0234375 98.81640625 C13.69921875 96.98828125 13.69921875 96.98828125 15.71875 95.22265625 C16.37230469 94.6503125 17.02585937 94.07796875 17.69921875 93.48828125 C18.29734375 93.00359375 18.89546875 92.51890625 19.51171875 92.01953125 C21.43999411 88.72116551 20.50314432 85.53753575 19.69921875 81.98828125 C18.98468225 79.34429789 18.11072651 76.79731435 17.13671875 74.23828125 C16.8735083 73.54653809 16.61029785 72.85479492 16.33911133 72.14208984 C11.95834222 61.15274087 4.80908275 52.46744689 -3.30078125 43.98828125 C-3.87441406 43.35148437 -4.44804688 42.7146875 -5.0390625 42.05859375 C-12.72199153 33.80723799 -21.19588443 29.7966756 -31.98828125 27.00390625 C-38.22250429 25.09246994 -43.3826921 22.02373385 -46.80078125 16.36328125 C-49.68481461 9.87420618 -50.26643806 4.15348969 -48.17578125 -2.69921875 C-45.50468506 -7.41815536 -42.372497 -9.97586088 -37.55078125 -12.38671875 C-24.3788654 -14.91977949 -10.63396541 -7.16878685 0 0 Z M77.69921875 178.98828125 C76.73940094 179.15230438 76.73940094 179.15230438 75.76019287 179.31964111 C44.4420663 184.7140393 12.53040357 192.15033483 -16.17578125 206.11328125 C-16.82474365 206.42595947 -17.47370605 206.7386377 -18.14233398 207.06079102 C-24.0647952 210.07433185 -28.27872906 213.6116052 -30.70166016 219.93066406 C-31.93492876 224.16619293 -32.45839678 228.49327577 -32.98828125 232.86328125 C-33.11565674 233.86818604 -33.24303223 234.87309082 -33.37426758 235.90844727 C-34.40663048 244.6319484 -34.61861059 253.21854566 -34.30078125 261.98828125 C-26.43745776 260.71040468 -18.9864737 258.40952001 -11.44241333 255.90634155 C-7.99496275 254.76428649 -4.53975553 253.64605459 -1.0859375 252.5234375 C0.26808541 252.08225233 1.62208985 251.64101045 2.97607422 251.19970703 C37.86648039 239.84716963 73.71844832 233.83698938 110.44140625 233.8203125 C112.13892645 233.81708632 113.83644639 233.81372132 115.53396606 233.81022644 C119.07896568 233.80427561 122.62394107 233.80238214 126.16894531 233.80297852 C129.75460895 233.80305946 133.34014398 233.79616166 136.92578125 233.7824707 C160.97596204 233.69212947 184.77428714 233.73498673 208.51171875 238.17578125 C209.68001221 238.39081299 210.84830566 238.60584473 212.05200195 238.82739258 C233.14024953 242.8552294 253.62462976 249.36901276 274.125 255.65625 C274.76263779 255.85111496 275.40027557 256.04597992 276.05723572 256.24674988 C279.21171405 257.21327303 282.35756671 258.20062153 285.49755859 259.21337891 C286.67141113 259.58897949 287.84526367 259.96458008 289.0546875 260.3515625 C290.0964917 260.69098877 291.1382959 261.03041504 292.21166992 261.38012695 C294.67949177 262.26765826 294.67949177 262.26765826 296.69921875 260.98828125 C296.97078869 254.26293166 295.97894796 248.18112634 294.57421875 241.61328125 C294.23970703 240.04066528 294.23970703 240.04066528 293.8984375 238.4362793 C292.4370353 231.80193719 290.77749919 225.26941213 288.69921875 218.80078125 C288.47476074 218.07777832 288.25030273 217.35477539 288.01904297 216.60986328 C286.20538711 211.28615245 283.86560195 207.69886087 278.84228516 204.98510742 C276.59253767 203.95946408 274.32301097 203.05403561 272.01171875 202.17578125 C270.70436768 201.66930054 270.70436768 201.66930054 269.37060547 201.15258789 C210.38328741 178.80608593 140.31482699 168.22832339 77.69921875 178.98828125 Z M132.69921875 312.98828125 C131.68074601 330.43066144 131.54957379 347.84786445 131.56489325 365.3131299 C131.5674798 369.20528506 131.56506158 373.09743822 131.56350708 376.98959351 C131.5617003 383.53343129 131.56404894 390.0772577 131.56884766 396.62109375 C131.57425529 404.07917474 131.57254713 411.53722822 131.56702125 418.99530852 C131.56240828 425.49222943 131.56187952 431.98914229 131.56445992 438.48606431 C131.56598283 442.32438946 131.56633203 446.16270194 131.56292343 450.00102615 C131.55024393 466.61695729 131.70828062 483.21888435 132.14501953 499.82958984 C132.16443155 500.61173961 132.18384357 501.39388937 132.20384383 502.19974065 C132.26005918 504.41217224 132.32259101 506.62432505 132.38748169 508.83651733 C132.42329409 510.09920126 132.45910648 511.36188519 132.4960041 512.66283226 C132.67211274 515.54471251 133.04256754 518.18272764 133.69921875 520.98828125 C134.35921875 520.98828125 135.01921875 520.98828125 135.69921875 520.98828125 C137.19359803 508.04749094 137.99056324 495.33503388 137.9296875 482.3125 C137.92891243 480.58589698 137.92892863 478.85929346 137.92967224 477.13269043 C137.92874213 472.58302849 137.9147138 468.03350644 137.89685822 463.4838829 C137.88662607 460.65011334 137.87995589 457.81635693 137.87445068 454.98257446 C137.80154973 418.0163342 137.23508144 381.11267092 135.69921875 344.17578125 C135.65742493 343.17002045 135.6156311 342.16425964 135.5725708 341.12802124 C135.45218035 338.2830684 135.32686022 335.43838591 135.19921875 332.59375 C135.16379974 331.76681641 135.12838074 330.93988281 135.09188843 330.08789062 C134.82568812 324.3640372 134.31868455 318.68436888 133.69921875 312.98828125 C133.36921875 312.98828125 133.03921875 312.98828125 132.69921875 312.98828125 Z M134.69921875 603.98828125 C131.64381655 608.4755509 129.06371837 613.3004704 126.46484375 618.0625 C120.65885385 628.69974297 114.4508281 638.9254014 107.69921875 648.98828125 C106.92723145 650.14312012 106.92723145 650.14312012 106.13964844 651.32128906 C95.19672055 667.64576639 83.69709278 683.23892065 70.69921875 697.98828125 C76.31931727 701.1105582 81.85733325 701.14663969 88.16796875 701.15625 C89.01607117 701.16039413 89.86417358 701.16453827 90.73797607 701.16880798 C93.55843288 701.17859837 96.37874729 701.17843706 99.19921875 701.17578125 C100.65902161 701.17587189 100.65902161 701.17587189 102.14831543 701.17596436 C119.09392202 701.1611932 136.01583559 700.7366757 152.94921875 700.11328125 C154.06498291 700.07407562 155.18074707 700.03487 156.33032227 699.99447632 C178.14608174 699.25515926 178.14608174 699.25515926 199.69921875 695.98828125 C196.44829193 691.56340864 193.10540172 687.2377061 189.64550781 682.97558594 C170.38803123 659.20600158 153.75849797 633.3029942 137.7890625 607.24609375 C136.75458984 605.63347656 136.75458984 605.63347656 135.69921875 603.98828125 C135.36921875 603.98828125 135.03921875 603.98828125 134.69921875 603.98828125 Z M259.51953125 761.37890625 C258.11839728 761.67820196 256.71710415 761.97675326 255.31567383 762.2746582 C254.58442291 762.43213531 253.853172 762.58961243 253.09976196 762.75186157 C227.2380761 768.28005055 201.0845911 771.27380422 174.69921875 772.98828125 C172.86037109 773.11964478 172.86037109 773.11964478 170.984375 773.25366211 C156.02666105 774.23758726 141.04432987 774.17567328 126.06152344 774.17358398 C123.00807703 774.17350328 119.95478246 774.18037098 116.90136719 774.1940918 C90.37630182 774.31122954 63.9881006 773.488734 37.63671875 770.17578125 C36.96527832 770.09445953 36.29383789 770.01313782 35.60205078 769.92935181 C25.79359521 768.73385303 16.17404819 767.07921373 6.63256836 764.4753418 C-1.96435546 762.21492489 -8.67188559 763.05443148 -16.55078125 767.30078125 C-17.21480957 767.64544434 -17.87883789 767.99010742 -18.56298828 768.34521484 C-31.394999 775.09411923 -43.89276148 782.4958353 -56.30078125 789.98828125 C-51.9650877 794.03257381 -47.52016848 795.59687826 -41.98828125 797.36328125 C-41.0638623 797.66290771 -40.13944336 797.96253418 -39.18701172 798.27124023 C-18.3014717 804.89532009 3.15319671 809.15831499 24.69921875 812.98828125 C25.35124268 813.10449829 26.0032666 813.22071533 26.67504883 813.3404541 C48.26664712 817.16723806 69.83456898 819.43975231 91.69921875 820.98828125 C92.68180664 821.06030762 93.66439453 821.13233398 94.67675781 821.20654297 C106.02058442 822.02175887 117.33117018 822.17988803 128.69921875 821.98828125 C129.85276855 821.97039551 131.00631836 821.95250977 132.19482422 821.93408203 C166.45958376 821.3329459 199.98557702 818.19772665 233.69921875 811.98828125 C234.95814941 811.7577002 236.21708008 811.52711914 237.51416016 811.28955078 C266.49833751 805.84538052 298.50175031 797.84730684 324.69921875 783.98828125 C321.10995931 780.92231649 317.57093497 778.76036167 313.32421875 776.7109375 C312.71843994 776.41771103 312.11266113 776.12448456 311.48852539 775.82237244 C310.20918403 775.20503852 308.92830801 774.59087593 307.64599609 773.97973633 C305.72847428 773.06474128 303.81713061 772.13775434 301.90625 771.20898438 C281.61532315 761.17525706 281.61532315 761.17525706 259.51953125 761.37890625 Z M-47.30078125 864.98828125 C-45.75005233 868.68330681 -43.4947626 871.05237562 -40.6796875 873.875 C-40.22029282 874.33630814 -39.76089813 874.79761627 -39.2875824 875.27290344 C-38.3124251 876.24941925 -37.33474742 877.22342381 -36.35473633 878.19506836 C-34.89240985 879.64686245 -33.44084456 881.10877654 -31.99023438 882.57226562 C-25.7600888 888.81155515 -19.21672262 894.51348102 -12.30078125 899.98828125 C-11.20409594 900.89124921 -10.10872049 901.79581466 -9.015625 902.703125 C31.52228874 935.14485906 84.46219626 941.03608908 134.69921875 939.98828125 C135.56820801 939.9742627 136.43719727 939.96024414 137.33251953 939.94580078 C188.7874647 938.95687079 232.78016414 923.12453107 271.17236328 889.28564453 C272.44233578 888.20655374 273.78083252 887.20875543 275.1328125 886.234375 C275.90818359 885.61755859 275.90818359 885.61755859 276.69921875 884.98828125 C276.69921875 884.32828125 276.69921875 883.66828125 276.69921875 882.98828125 C277.24191406 882.77042969 277.78460937 882.55257812 278.34375 882.328125 C281.49477074 880.53575334 283.86494751 878.11263362 286.38671875 875.55078125 C286.88494141 875.06029297 287.38316406 874.56980469 287.89648438 874.06445312 C290.22686724 871.72142232 291.63983111 870.16644418 292.69921875 866.98828125 C286.6416314 867.57673259 281.1940061 868.89641939 275.38671875 870.67578125 C262.6325567 874.43674098 249.71607664 877.29698539 236.69921875 879.98828125 C235.61398926 880.21402832 234.52875977 880.43977539 233.41064453 880.67236328 C148.41937111 898.08577208 62.59905523 892.42090663 -24.55615234 869.95556641 C-28.71565618 868.88111379 -32.87548623 867.80856228 -37.0390625 866.75 C-37.71986374 866.5739473 -38.40066498 866.39789459 -39.10209656 866.21650696 C-41.92465754 865.50260044 -44.37525404 864.98828125 -47.30078125 864.98828125 Z " fill="#2C004F" transform="translate(668.30078125,320.01171875)"/>
</svg>
